<?xml version="1.0" standalone="no"?>
<!DOCTYPE svg PUBLIC "-//W3C//DTD SVG 20010904//EN"
 "http://www.w3.org/TR/2001/REC-SVG-20010904/DTD/svg10.dtd">
<svg version="1.0" xmlns="http://www.w3.org/2000/svg"
 width="1063.000000pt" height="1063.000000pt" viewBox="0 0 1063.000000 1063.000000"
 preserveAspectRatio="xMidYMid meet">
<metadata>
Created by potrace 1.11, written by Peter Selinger 2001-2013
</metadata>
<g transform="translate(0.000000,1063.000000) scale(0.100000,-0.100000)"
fill="#000000" stroke="none">
<path d="M6230 10593 c-14 -20 -32 -46 -40 -58 -23 -34 -63 -86 -77 -101 -7
-7 -13 -15 -13 -18 0 -3 -7 -14 -15 -23 -12 -15 -152 -204 -223 -301 -41 -56
-124 -168 -138 -185 -13 -16 -1 -27 143 -134 213 -156 393 -289 422 -311 174
-128 165 -122 178 -104 28 40 109 150 339 462 55 74 121 164 147 199 l47 64
-63 46 c-34 25 -111 82 -172 127 -60 44 -182 134 -270 198 -88 64 -168 123
-177 131 -56 46 -61 47 -88 8z"/>
<path d="M6965 9938 c-44 -60 -85 -117 -93 -126 -10 -14 -255 -346 -310 -421
-9 -13 -27 -37 -39 -54 l-22 -30 77 -57 c42 -31 140 -103 217 -160 163 -119
226 -166 240 -178 6 -4 51 -37 100 -72 50 -36 93 -69 97 -75 4 -5 9 -7 11 -5
2 3 122 167 267 365 146 198 269 363 274 367 9 6 -58 57 -474 361 -102 75
-189 140 -195 144 -5 5 -23 18 -40 30 l-30 21 -80 -110z"/>
<path d="M5652 9807 c-28 -39 -188 -258 -199 -272 -5 -5 -71 -95 -147 -200
-77 -104 -148 -200 -158 -211 l-19 -22 118 -88 c65 -49 123 -91 128 -93 6 -2
12 -7 15 -11 3 -3 48 -38 100 -76 52 -37 100 -73 107 -79 6 -5 37 -28 68 -50
31 -22 66 -48 77 -57 12 -10 24 -18 27 -18 3 0 17 -10 31 -23 36 -32 80 -59
80 -49 0 5 12 25 28 44 15 19 35 46 44 59 10 13 36 49 58 79 23 30 48 64 56
75 8 11 91 124 184 250 152 207 168 231 152 242 -9 7 -75 55 -147 108 -155
115 -131 97 -378 279 -109 80 -199 146 -200 146 -1 0 -12 -15 -25 -33z"/>
<path d="M7796 9417 c-17 -23 -135 -184 -263 -358 -127 -174 -233 -321 -235
-327 -2 -6 22 -29 52 -51 30 -22 60 -44 65 -48 6 -5 87 -64 180 -133 94 -68
172 -128 173 -132 2 -4 10 -8 17 -8 7 0 15 -3 17 -8 2 -4 37 -32 78 -62 41
-30 77 -58 78 -62 2 -5 9 -8 15 -8 6 0 21 -9 33 -21 l23 -21 46 63 c25 35 51
71 58 79 7 8 23 31 37 50 14 19 30 42 37 50 38 48 363 492 363 496 0 9 -23 28
-140 113 -147 108 -412 303 -425 314 -44 36 -162 117 -170 117 -5 0 -23 -19
-39 -43z"/>
<path d="M6444 9233 c-9 -16 -62 -89 -117 -163 -56 -74 -124 -166 -152 -205
-29 -38 -97 -131 -153 -206 l-100 -137 21 -19 c12 -11 74 -57 137 -103 116
-85 239 -176 452 -333 65 -48 122 -87 128 -87 5 0 24 21 42 48 39 56 104 145
206 277 39 52 72 100 72 105 0 6 4 10 8 10 4 0 15 12 24 28 9 15 26 38 37 52
36 46 116 155 135 184 l19 30 -34 27 c-29 23 -243 181 -304 225 -29 20 -126
92 -155 114 -49 37 -244 180 -246 180 -1 0 -10 -12 -20 -27z"/>
<path d="M5073 9023 c-10 -15 -45 -64 -78 -109 -33 -44 -68 -91 -78 -105 -52
-72 -239 -326 -250 -339 -7 -8 -35 -47 -64 -86 -57 -79 -58 -71 17 -124 19
-13 40 -28 45 -33 57 -47 621 -457 627 -455 6 2 134 171 216 287 14 20 51 68
114 153 7 9 20 26 28 38 8 12 52 72 98 133 45 61 82 115 81 121 0 6 -56 52
-125 101 -68 50 -133 97 -143 105 -42 34 -414 306 -441 323 l-29 18 -18 -28z"/>
<path d="M8535 8766 c-49 -66 -146 -197 -215 -291 -68 -93 -128 -174 -132
-180 -31 -39 -108 -145 -108 -149 0 -2 57 -46 128 -97 139 -102 478 -352 503
-372 8 -7 23 -16 31 -22 9 -5 30 -20 47 -33 l30 -23 91 123 c49 68 125 170
167 228 42 58 122 165 176 239 55 74 100 140 101 146 1 7 -129 108 -289 226
-159 117 -295 218 -302 223 -6 6 -28 22 -48 36 -20 14 -48 35 -63 46 l-27 22
-90 -122z"/>
<path d="M7234 8651 c-10 -17 -22 -31 -26 -31 -4 0 -8 -6 -8 -14 0 -8 -3 -16
-7 -18 -9 -3 -27 -27 -233 -308 -79 -107 -168 -228 -198 -268 -52 -69 -54 -74
-36 -87 11 -7 114 -83 229 -169 116 -85 230 -170 255 -188 25 -18 49 -36 55
-41 5 -4 49 -36 97 -72 l86 -64 94 127 c52 70 119 161 148 202 30 41 59 80 65
87 5 6 35 45 65 87 30 42 81 111 112 154 32 42 58 80 58 83 0 3 -45 39 -101
80 -55 41 -129 95 -162 120 -34 25 -150 111 -257 189 -107 79 -200 147 -207
152 -7 6 -17 -1 -29 -21z"/>
<path d="M5835 8402 c-27 -37 -55 -74 -62 -82 -7 -8 -41 -54 -75 -102 -35 -48
-130 -178 -212 -289 -113 -153 -146 -203 -135 -209 8 -5 80 -57 160 -117 479
-354 560 -413 569 -413 5 0 15 10 21 23 7 12 15 24 19 27 7 5 175 232 217 293
12 18 82 113 156 212 l133 180 -70 52 c-39 28 -87 63 -106 78 -42 32 -126 94
-319 235 -79 58 -154 114 -167 125 -13 12 -37 28 -52 37 l-28 17 -49 -67z"/>
<path d="M9323 8187 c-130 -178 -272 -371 -286 -387 -6 -9 -28 -38 -46 -65
-19 -28 -38 -52 -41 -55 -18 -16 -80 -112 -76 -119 3 -4 79 -61 168 -127 90
-65 168 -122 173 -127 83 -68 391 -285 396 -280 7 7 114 150 163 218 8 11 96
130 195 265 100 135 181 247 180 250 0 3 -48 40 -107 82 -59 43 -191 140 -293
215 -103 76 -199 147 -214 158 -15 11 -47 35 -70 53 -24 17 -47 32 -52 32 -4
-1 -45 -51 -90 -113z"/>
<path d="M4430 8144 c-47 -63 -90 -120 -95 -127 -6 -7 -80 -106 -165 -222 -84
-115 -164 -224 -177 -241 l-23 -31 167 -124 c298 -219 448 -330 463 -342 8 -7
32 -23 53 -37 20 -14 37 -28 37 -32 0 -17 23 -6 44 19 28 36 217 295 236 323
8 13 27 37 41 54 14 17 47 63 74 101 27 39 55 77 62 85 30 33 102 136 103 145
0 6 -20 24 -45 40 -24 17 -45 33 -45 38 0 4 -6 7 -14 7 -8 0 -16 3 -18 8 -1 4
-106 83 -233 176 -126 93 -262 193 -301 223 -39 29 -72 53 -75 53 -3 0 -43
-52 -89 -116z"/>
<path d="M7969 7999 c-41 -56 -108 -147 -149 -202 -319 -432 -324 -439 -309
-451 9 -6 101 -74 205 -150 104 -77 263 -195 354 -263 151 -112 166 -121 179
-105 7 9 71 96 142 192 71 96 136 184 145 195 69 88 243 331 241 337 -1 3 -69
56 -152 117 -82 60 -154 114 -160 118 -5 5 -26 20 -45 33 -19 14 -42 30 -50
37 -8 7 -73 55 -145 108 -71 53 -142 104 -156 115 l-26 19 -74 -100z"/>
<path d="M6584 7769 c-49 -66 -133 -180 -186 -252 -53 -73 -101 -136 -105
-142 -5 -5 -38 -50 -73 -100 -35 -49 -70 -96 -77 -103 -7 -7 -13 -16 -13 -20
1 -4 50 -43 111 -87 61 -44 120 -88 132 -97 12 -9 61 -45 108 -80 48 -35 153
-111 233 -170 80 -60 149 -108 153 -108 5 0 31 32 58 71 28 38 58 79 68 92 11
12 43 56 73 97 29 41 92 127 139 190 47 63 113 153 146 199 l61 84 -28 23
c-16 13 -121 90 -234 173 -113 83 -209 154 -215 159 -17 13 -198 147 -231 170
l-31 22 -89 -121z"/>
<path d="M5264 7628 c-21 -29 -41 -55 -45 -58 -3 -3 -21 -27 -40 -55 -19 -27
-69 -97 -112 -155 -43 -58 -130 -175 -193 -260 l-114 -155 30 -25 c16 -14 49
-39 72 -56 54 -39 253 -186 373 -274 50 -36 128 -94 174 -128 46 -34 87 -62
90 -62 3 1 87 111 186 247 99 135 220 299 268 365 48 65 86 122 83 127 -3 5
-90 71 -193 147 -104 76 -266 196 -360 266 -95 70 -175 128 -177 128 -2 0 -21
-24 -42 -52z"/>
<path d="M8716 7362 c-104 -142 -140 -191 -186 -252 -8 -11 -29 -39 -46 -62
-17 -24 -66 -90 -109 -148 -43 -58 -79 -110 -82 -116 -3 -9 108 -104 122 -104
3 0 13 -7 22 -15 22 -17 124 -93 378 -279 105 -76 195 -143 201 -148 8 -5 35
24 80 87 38 53 92 126 120 163 27 37 99 135 159 217 60 83 112 152 115 155 14
12 82 111 79 114 -2 2 -134 99 -294 216 -159 118 -325 239 -367 271 l-77 58
-115 -157z"/>
<path d="M3911 7443 c-12 -16 -53 -71 -91 -123 -38 -52 -73 -99 -77 -105 -35
-44 -344 -468 -346 -475 -1 -4 50 -47 113 -94 63 -47 120 -89 125 -93 6 -5 44
-33 85 -63 41 -30 77 -58 78 -62 2 -5 8 -8 13 -8 7 0 59 -37 169 -123 9 -7 38
-28 65 -46 28 -19 52 -38 55 -41 22 -28 41 -10 155 148 66 90 125 170 130 176
6 6 39 52 75 101 35 50 68 95 73 100 28 34 137 185 137 190 0 8 -27 35 -34 35
-3 0 -14 7 -23 15 -10 8 -63 48 -118 88 -55 41 -170 125 -255 188 -276 203
-297 219 -303 219 -2 0 -14 -12 -26 -27z"/>
<path d="M7442 7285 c-12 -14 -22 -28 -22 -30 0 -3 -5 -11 -10 -18 -16 -19
-271 -364 -390 -527 -30 -41 -57 -77 -60 -80 -18 -16 -41 -63 -33 -70 4 -4 51
-38 103 -76 52 -38 100 -72 105 -77 6 -5 125 -93 265 -196 177 -130 258 -184
265 -177 6 6 39 52 75 101 35 50 68 95 72 100 17 21 226 304 288 390 36 50 73
99 83 110 9 10 16 23 15 27 -2 4 -79 64 -173 132 -93 69 -174 129 -180 133 -5
5 -80 60 -165 122 -85 63 -169 125 -186 137 l-31 24 -21 -25z"/>
<path d="M6078 7082 c-8 -9 -71 -93 -139 -187 -68 -93 -127 -174 -131 -180
-21 -26 -65 -85 -78 -105 -8 -12 -26 -37 -40 -55 -14 -18 -33 -44 -42 -57 -9
-12 -35 -47 -58 -77 -22 -30 -40 -57 -39 -60 0 -3 93 -73 206 -156 113 -82
279 -204 368 -271 l162 -120 154 209 c85 115 207 281 272 370 l118 162 -23 18
c-12 11 -88 67 -168 125 -80 59 -147 109 -150 112 -3 3 -21 17 -40 30 -19 13
-102 74 -185 135 -184 136 -169 128 -187 107z"/>
<path d="M4710 6882 c0 -5 -8 -19 -17 -30 -10 -12 -32 -41 -49 -64 -17 -24
-78 -106 -135 -183 -57 -77 -111 -150 -119 -162 -8 -12 -55 -77 -105 -144 -49
-67 -93 -128 -97 -135 -6 -8 53 -57 180 -150 103 -76 189 -142 190 -146 2 -5
7 -8 12 -8 4 0 83 -56 176 -125 l169 -126 25 30 c14 17 76 99 137 183 62 84
166 225 232 314 165 224 159 215 137 228 -9 6 -54 38 -99 72 -45 33 -116 85
-157 116 -489 360 -480 353 -480 330z"/>
<path d="M470 6280 l0 -460 460 0 460 0 0 460 0 460 -460 0 -460 0 0 -460z"/>
<path d="M1450 6280 l0 -460 460 0 460 0 0 460 0 460 -460 0 -460 0 0 -460z"/>
<path d="M2430 6280 l0 -460 460 0 460 0 0 460 0 460 -460 0 -460 0 0 -460z"/>
<path d="M8173 6624 c-43 -59 -125 -170 -183 -248 -180 -241 -271 -368 -276
-380 -3 -7 58 -59 143 -121 81 -60 242 -179 358 -264 115 -85 216 -156 225
-158 10 -2 50 46 117 139 57 79 176 242 266 363 90 121 162 225 160 230 -2 6
-52 45 -111 87 -107 77 -438 320 -457 335 -6 4 -45 34 -87 66 l-77 57 -78
-106z"/>
<path d="M6863 6497 c-11 -12 -59 -76 -106 -142 -48 -66 -161 -220 -251 -343
-91 -122 -163 -228 -160 -235 2 -7 14 -18 25 -25 21 -13 142 -102 489 -359
113 -84 208 -153 212 -153 4 0 27 26 50 57 24 32 47 62 51 68 7 9 219 297 269
366 90 123 159 216 169 227 6 8 8 17 3 22 -10 10 -626 465 -690 510 l-41 29
-20 -22z"/>
<path d="M5415 6183 c-49 -69 -95 -131 -100 -137 -6 -6 -22 -27 -35 -46 -13
-19 -28 -39 -33 -45 -4 -5 -26 -35 -48 -65 -22 -30 -48 -66 -59 -80 -80 -106
-170 -231 -170 -235 0 -5 200 -154 595 -444 61 -44 115 -85 122 -91 7 -5 14
-10 17 -10 3 0 39 46 80 103 42 56 80 107 84 112 5 6 39 53 77 105 37 52 79
109 92 125 31 40 31 40 92 125 30 41 58 77 63 78 4 2 8 10 8 18 0 8 4 14 8 14
4 0 16 13 25 29 l17 30 -152 113 c-84 63 -187 138 -228 168 -41 30 -80 59 -86
65 -6 5 -21 17 -34 25 -12 8 -69 50 -127 93 -57 42 -108 77 -111 77 -4 -1 -47
-58 -97 -127z"/>
<path d="M7618 5871 c-29 -39 -64 -86 -78 -106 -14 -19 -33 -46 -44 -58 -10
-12 -29 -38 -42 -57 -13 -19 -33 -46 -43 -60 -11 -14 -49 -65 -85 -115 -36
-49 -69 -95 -73 -100 -58 -75 -123 -166 -123 -173 0 -5 55 -49 123 -97 67 -49
124 -92 127 -95 3 -3 27 -22 55 -41 27 -18 56 -39 65 -46 69 -55 356 -263 362
-263 6 0 36 37 90 111 9 13 74 101 143 194 69 94 134 181 143 195 9 14 49 68
88 120 38 52 73 100 77 106 4 6 -14 25 -41 45 -26 18 -49 35 -52 38 -3 4 -27
22 -55 41 -27 19 -57 40 -65 47 -8 6 -87 65 -175 129 -88 64 -171 126 -185
136 -14 11 -55 41 -92 69 l-67 49 -53 -69z"/>
<path d="M470 5300 l0 -460 460 0 460 0 0 460 0 460 -460 0 -460 0 0 -460z"/>
<path d="M1450 5300 l0 -460 460 0 460 0 0 460 0 460 -460 0 -460 0 0 -460z"/>
<path d="M2430 5300 l0 -460 460 0 460 0 0 460 0 460 -460 0 -460 0 0 -460z"/>
<path d="M6190 5584 c-58 -80 -110 -151 -115 -158 -6 -6 -60 -78 -120 -161
-60 -82 -113 -154 -117 -160 -48 -60 -78 -107 -73 -115 6 -9 227 -176 305
-230 19 -13 40 -29 46 -35 6 -5 22 -17 34 -25 13 -8 35 -24 49 -35 14 -12 86
-65 159 -119 112 -83 136 -96 147 -85 10 11 231 309 323 437 9 13 31 42 48 65
88 118 151 203 157 214 4 7 -21 31 -65 64 -40 30 -77 57 -83 62 -65 51 -570
420 -579 423 -6 2 -58 -62 -116 -142z"/>
<path d="M7070 5129 c-7 -11 -18 -28 -25 -37 -13 -16 -291 -391 -436 -590 -33
-45 -59 -86 -57 -91 2 -7 381 -290 676 -505 62 -45 50 -53 152 89 35 50 68 95
73 100 8 10 321 435 357 486 l19 26 -141 104 c-78 57 -216 159 -307 226 -91
67 -170 126 -176 130 -32 26 -114 83 -118 83 -4 0 -11 -9 -17 -21z"/>
<path d="M470 4320 l0 -460 460 0 460 0 0 460 0 460 -460 0 -460 0 0 -460z"/>
<path d="M1450 4320 l0 -460 460 0 460 0 0 460 0 460 -460 0 -460 0 0 -460z"/>
<path d="M2430 4320 l0 -460 460 0 460 0 0 460 0 460 -460 0 -460 0 0 -460z"/>
<path d="M3370 3400 l0 -460 460 0 460 0 0 460 0 460 -460 0 -460 0 0 -460z"/>
<path d="M4350 3400 l0 -460 460 0 460 0 0 460 0 460 -460 0 -460 0 0 -460z"/>
<path d="M5330 3400 l0 -460 460 0 460 0 0 460 0 460 -460 0 -460 0 0 -460z"/>
<path d="M6310 3400 l0 -460 460 0 460 0 0 460 0 460 -460 0 -460 0 0 -460z"/>
<path d="M3370 2420 l0 -460 460 0 460 0 0 460 0 460 -460 0 -460 0 0 -460z"/>
<path d="M4350 2420 l0 -460 460 0 460 0 0 460 0 460 -460 0 -460 0 0 -460z"/>
<path d="M5330 2420 l0 -460 460 0 460 0 0 460 0 460 -460 0 -460 0 0 -460z"/>
<path d="M6310 2420 l0 -460 460 0 460 0 0 460 0 460 -460 0 -460 0 0 -460z"/>
<path d="M3370 1440 l0 -460 460 0 460 0 0 460 0 460 -460 0 -460 0 0 -460z"/>
<path d="M4350 1440 l0 -460 460 0 460 0 0 460 0 460 -460 0 -460 0 0 -460z"/>
<path d="M5330 1440 l0 -460 460 0 460 0 0 460 0 460 -460 0 -460 0 0 -460z"/>
<path d="M6310 1440 l0 -460 460 0 460 0 0 460 0 460 -460 0 -460 0 0 -460z"/>
<path d="M3370 460 l0 -460 460 0 460 0 0 460 0 460 -460 0 -460 0 0 -460z"/>
<path d="M4350 460 l0 -460 460 0 460 0 0 460 0 460 -460 0 -460 0 0 -460z"/>
<path d="M5330 460 l0 -460 460 0 460 0 0 460 0 460 -460 0 -460 0 0 -460z"/>
<path d="M6310 460 l0 -460 460 0 460 0 0 460 0 460 -460 0 -460 0 0 -460z"/>
</g>
</svg>
